# xmcd
#
# Track frame offsets:
#	150
#	17108
#	33736
#	51063
#	68144
#
# Disc length: 1077 seconds
# Revision: 0
# Processed by: cddbd v1.5.2PL0 Copyright (c) Steve Scherf et al.
# Submitted via: dBpowerAMP V12.0
#
DISCID=3e043305
DTITLE=Whitney McClain - Nothing to Lose
DYEAR=2016
DGENRE=Blues
TTITLE0=Bombs Away
TTITLE1=Heart Games
TTITLE2=Sober
TTITLE3=Nothing Left
TTITLE4=Terminal Love
EXTD=
EXTT0=
EXTT1=
EXTT2=
EXTT3=
EXTT4=
PLAYORDER=
